# xmcd CD Database Entry
#
# Track frame offsets:
# 150
# 74385
# 99877
# 129327
# 211672
#
# Disc length: 3431 seconds
#
# Revision: 3
# Processed by: cddbd v1.4PL0 Copyright (c) Steve Scherf et al.
# Submitted via: tcd 2.0b
#
DISCID=390d6505
DTITLE=Gershwin - Gershwin's Greatest Hits
DYEAR=1900
DGENRE=
TTITLE0=Rhapsody In Blue
TTITLE1=Three Preludes
TTITLE2=Concerto In F
TTITLE3=An American In Paris
TTITLE4=Porgy And Bess
EXTD=
EXTT0=
EXTT1=
EXTT2=
EXTT3=
EXTT4=
PLAYORDER=
